<svg width="20" height="20" viewBox="0 0 20 20" fill="none" xmlns="http://www.w3.org/2000/svg">
<path fill-rule="evenodd" clip-rule="evenodd" d="M15.0001 4.17353C15.0001 2.4588 13.3132 1.25305 11.6908 1.80815L3.35743 4.65941C2.34619 5.0054 1.66675 5.95599 1.66675 7.02478V15.8335C1.66675 17.2142 2.78604 18.3335 4.16675 18.3335H15.8334C17.2141 18.3335 18.3334 17.2142 18.3334 15.8335V8.33351C18.3334 6.9528 17.2141 5.83351 15.8334 5.83351H6.69892L14.2544 5.03467C14.6783 4.98985 15.0001 4.63228 15.0001 4.20596V4.17353ZM13.7501 13.3333C14.4404 13.3333 15.0001 12.7737 15.0001 12.0833C15.0001 11.393 14.4404 10.8333 13.7501 10.8333C13.0597 10.8333 12.5001 11.393 12.5001 12.0833C12.5001 12.7737 13.0597 13.3333 13.7501 13.3333Z" fill="white"/>
</svg>
