<svg width="20" height="20" viewBox="0 0 20 20" fill="none" xmlns="http://www.w3.org/2000/svg">
<path fill-rule="evenodd" clip-rule="evenodd" d="M4.1665 1.66663C2.78579 1.66663 1.6665 2.78591 1.6665 4.16663V6.66663C1.6665 8.04734 2.78579 9.16663 4.1665 9.16663H6.6665C8.04722 9.16663 9.1665 8.04734 9.1665 6.66663V4.16663C9.1665 2.78591 8.04722 1.66663 6.6665 1.66663H4.1665ZM3.33317 4.16663C3.33317 3.70639 3.70627 3.33329 4.1665 3.33329H6.6665C7.12674 3.33329 7.49984 3.70639 7.49984 4.16663V6.66663C7.49984 7.12686 7.12674 7.49996 6.6665 7.49996H4.1665C3.70627 7.49996 3.33317 7.12686 3.33317 6.66663V4.16663ZM4.1665 10.8333C2.78579 10.8333 1.6665 11.9526 1.6665 13.3333V15.8333C1.6665 17.214 2.78579 18.3333 4.1665 18.3333H6.6665C8.04722 18.3333 9.1665 17.214 9.1665 15.8333V13.3333C9.1665 11.9526 8.04722 10.8333 6.6665 10.8333H4.1665ZM3.33317 13.3333C3.33317 12.8731 3.70627 12.5 4.1665 12.5H6.6665C7.12674 12.5 7.49984 12.8731 7.49984 13.3333V15.8333C7.49984 16.2935 7.12674 16.6666 6.6665 16.6666H4.1665C3.70627 16.6666 3.33317 16.2935 3.33317 15.8333V13.3333ZM10.8332 4.16663C10.8332 2.78591 11.9525 1.66663 13.3332 1.66663H15.8332C17.2139 1.66663 18.3332 2.78591 18.3332 4.16663V6.66663C18.3332 8.04734 17.2139 9.16663 15.8332 9.16663H13.3332C11.9525 9.16663 10.8332 8.04734 10.8332 6.66663V4.16663ZM13.3332 3.33329C12.8729 3.33329 12.4998 3.70639 12.4998 4.16663V6.66663C12.4998 7.12686 12.8729 7.49996 13.3332 7.49996H15.8332C16.2934 7.49996 16.6665 7.12686 16.6665 6.66663V4.16663C16.6665 3.70639 16.2934 3.33329 15.8332 3.33329H13.3332ZM12.9165 14.1666C13.6069 14.1666 14.1665 13.607 14.1665 12.9166C14.1665 12.2263 13.6069 11.6666 12.9165 11.6666C12.2261 11.6666 11.6665 12.2263 11.6665 12.9166C11.6665 13.607 12.2261 14.1666 12.9165 14.1666ZM12.9165 17.5C13.6069 17.5 14.1665 16.9403 14.1665 16.25C14.1665 15.5596 13.6069 15 12.9165 15C12.2261 15 11.6665 15.5596 11.6665 16.25C11.6665 16.9403 12.2261 17.5 12.9165 17.5ZM17.4998 12.9166C17.4998 13.607 16.9402 14.1666 16.2498 14.1666C15.5595 14.1666 14.9998 13.607 14.9998 12.9166C14.9998 12.2263 15.5595 11.6666 16.2498 11.6666C16.9402 11.6666 17.4998 12.2263 17.4998 12.9166ZM16.2498 17.5C16.9402 17.5 17.4998 16.9403 17.4998 16.25C17.4998 15.5596 16.9402 15 16.2498 15C15.5595 15 14.9998 15.5596 14.9998 16.25C14.9998 16.9403 15.5595 17.5 16.2498 17.5Z" fill="black"/>
</svg>
